<?xml version="1.0" encoding="utf-8"?>
<!-- Generator: Adobe Illustrator 21.0.0, SVG Export Plug-In . SVG Version: 6.00 Build 0)  -->
<svg version="1.1" id="layer" xmlns="http://www.w3.org/2000/svg" xmlns:xlink="http://www.w3.org/1999/xlink" x="0px" y="0px"
	 viewBox="0 0 20.9 20.9" style="enable-background:new 0 0 20.9 20.9;" xml:space="preserve">
<path id="link" d="M16.4,12.1l-0.7-0.7l2.9-2.9c0.8-0.8,1.3-1.9,1.3-3.1c0-1.2-0.5-2.3-1.3-3.1C17.7,1.5,16.6,1,15.4,1
	c-1.2,0-2.3,0.5-3.1,1.3L9.4,5.1L8.7,4.4l2.9-2.9c1-1,2.4-1.6,3.9-1.6s2.8,0.6,3.9,1.6c1,1,1.6,2.4,1.6,3.9c0,1.5-0.6,2.8-1.6,3.9
	L16.4,12.1z M9.3,19.3l2.9-2.9l-0.7-0.7l-2.9,2.9c-0.8,0.8-1.9,1.3-3.1,1.3c-1.2,0-2.3-0.5-3.1-1.3C1.5,17.7,1,16.6,1,15.4
	c0-1.2,0.5-2.3,1.3-3.1l2.9-2.9L4.4,8.7l-2.9,2.9c-1,1-1.6,2.4-1.6,3.9s0.6,2.8,1.6,3.9c1,1,2.4,1.6,3.9,1.6
	C6.9,20.9,8.3,20.3,9.3,19.3z M14.1,7.4l-0.7-0.7l-6.7,6.7l0.7,0.7L14.1,7.4z"/>
</svg>
