<?xml version="1.0" encoding="utf-8"?>
<!-- Generator: Adobe Illustrator 21.0.0, SVG Export Plug-In . SVG Version: 6.00 Build 0)  -->
<svg version="1.1" id="layer" xmlns="http://www.w3.org/2000/svg" xmlns:xlink="http://www.w3.org/1999/xlink" x="0px" y="0px"
	 viewBox="0 0 22.2 22.2" style="enable-background:new 0 0 22.2 22.2;" xml:space="preserve">
<path id="search" d="M21.5,22.2l-3.7-3.7l0.7-0.7l3.7,3.7L21.5,22.2z M19,9.5C19,4.3,14.7,0,9.5,0S0,4.3,0,9.5S4.3,19,9.5,19
	S19,14.7,19,9.5z M18,9.5c0,4.7-3.8,8.5-8.5,8.5C4.8,18,1,14.2,1,9.5C1,4.8,4.8,1,9.5,1C14.2,1,18,4.8,18,9.5z M5.1,8.6
	c0.4-1.8,1.7-3.1,3.5-3.5L9.1,5L8.9,4L8.4,4.1C6.2,4.6,4.6,6.2,4.1,8.4L4,8.9l1,0.2L5.1,8.6z"/>
</svg>
