<?xml version="1.0" encoding="utf-8"?><svg xmlns="http://www.w3.org/2000/svg" xmlns:xlink="http://www.w3.org/1999/xlink"><symbol viewBox="0 0 21.8 13" id="arrow-right" xmlns="http://www.w3.org/2000/svg"><path d="M13.5 0h-1v6H0v1h12.5v6h1l8.3-6.5L13.5 0zm0 1.3l6.7 5.2-6.7 5.3V1.3z"/></symbol><symbol viewBox="0 0 21.4 14.4" id="check" xmlns="http://www.w3.org/2000/svg"><path d="M7.7 14.4L0 6.7.7 6l7 7 13-13 .7.7z"/></symbol><symbol viewBox="0 0 15.4 15.4" id="close" xmlns="http://www.w3.org/2000/svg"><path d="M15.4.7l-.7-.7-7 7-7-7-.7.7 7 7-7 7 .7.7 7-7 7 7 .7-.7-7-7z"/></symbol><symbol viewBox="0 0 45.437 45.437" id="empty" xmlns="http://www.w3.org/2000/svg"/><symbol viewBox="0 0 20.9 20.9" id="link" xmlns="http://www.w3.org/2000/svg"><path d="M16.4 12.1l-.7-.7 2.9-2.9c.8-.8 1.3-1.9 1.3-3.1 0-1.2-.5-2.3-1.3-3.1-.9-.8-2-1.3-3.2-1.3-1.2 0-2.3.5-3.1 1.3L9.4 5.1l-.7-.7 2.9-2.9c1-1 2.4-1.6 3.9-1.6s2.8.6 3.9 1.6c1 1 1.6 2.4 1.6 3.9s-.6 2.8-1.6 3.9l-3 2.8zm-7.1 7.2l2.9-2.9-.7-.7-2.9 2.9c-.8.8-1.9 1.3-3.1 1.3-1.2 0-2.3-.5-3.1-1.3-.9-.9-1.4-2-1.4-3.2 0-1.2.5-2.3 1.3-3.1l2.9-2.9-.8-.7-2.9 2.9c-1 1-1.6 2.4-1.6 3.9s.6 2.8 1.6 3.9c1 1 2.4 1.6 3.9 1.6 1.5-.1 2.9-.7 3.9-1.7zm4.8-11.9l-.7-.7-6.7 6.7.7.7 6.7-6.7z"/></symbol><symbol viewBox="0 0 22.2 22.2" id="search" xmlns="http://www.w3.org/2000/svg"><path d="M21.5 22.2l-3.7-3.7.7-.7 3.7 3.7-.7.7zM19 9.5C19 4.3 14.7 0 9.5 0S0 4.3 0 9.5 4.3 19 9.5 19 19 14.7 19 9.5zm-1 0c0 4.7-3.8 8.5-8.5 8.5S1 14.2 1 9.5 4.8 1 9.5 1 18 4.8 18 9.5zM5.1 8.6c.4-1.8 1.7-3.1 3.5-3.5l.5-.1-.2-1-.5.1c-2.2.5-3.8 2.1-4.3 4.3l-.1.5 1 .2.1-.5z"/></symbol></svg>